<svg width="22" height="18" viewBox="0 0 22 18" fill="none" xmlns="http://www.w3.org/2000/svg">
<path d="M16.8877 7.89673C18.2827 7.70073 19.3567 6.50473 19.3597 5.05573C19.3597 3.62773 18.3187 2.44373 16.9537 2.21973" stroke="#130F26" stroke-width="1.5" stroke-linecap="round" stroke-linejoin="round"/>
<path d="M18.7285 11.2505C20.0795 11.4525 21.0225 11.9255 21.0225 12.9005C21.0225 13.5715 20.5785 14.0075 19.8605 14.2815" stroke="#130F26" stroke-width="1.5" stroke-linecap="round" stroke-linejoin="round"/>
<path fill-rule="evenodd" clip-rule="evenodd" d="M10.8867 11.6641C7.67273 11.6641 4.92773 12.1511 4.92773 14.0961C4.92773 16.0401 7.65573 16.5411 10.8867 16.5411C14.1007 16.5411 16.8447 16.0591 16.8447 14.1131C16.8447 12.1671 14.1177 11.6641 10.8867 11.6641Z" stroke="#130F26" stroke-width="1.5" stroke-linecap="round" stroke-linejoin="round"/>
<path fill-rule="evenodd" clip-rule="evenodd" d="M10.8869 8.888C12.9959 8.888 14.7059 7.179 14.7059 5.069C14.7059 2.96 12.9959 1.25 10.8869 1.25C8.7779 1.25 7.0679 2.96 7.0679 5.069C7.0599 7.171 8.7569 8.881 10.8589 8.888H10.8869Z" stroke="#130F26" stroke-width="1.5" stroke-linecap="round" stroke-linejoin="round"/>
<path d="M4.88484 7.89673C3.48884 7.70073 2.41584 6.50473 2.41284 5.05573C2.41284 3.62773 3.45384 2.44373 4.81884 2.21973" stroke="#130F26" stroke-width="1.5" stroke-linecap="round" stroke-linejoin="round"/>
<path d="M3.044 11.2505C1.693 11.4525 0.75 11.9255 0.75 12.9005C0.75 13.5715 1.194 14.0075 1.912 14.2815" stroke="#130F26" stroke-width="1.5" stroke-linecap="round" stroke-linejoin="round"/>
</svg>
